# xmcd CD database file
#
# Track frame offsets:
#	150
#	12687
#	25757
#	37385
#	49936
#	62191
#	74450
#	85908
#	97624
#	109577
#	118989
#	130864
#	142296
#	154340
#	166703
#	177747
#	190177
#	203251
#	214687
#	226819
#	238718
#	250442
#	263138
#	275138
#	287360
#	300375
#	312591
#	326155
#	339394
#
# Disc length: 4674 seconds
#
# Revision: 6
# Processed by: cddbd v1.5.2PL0 Copyright (c) Steve Scherf et al.
# Submitted via: CDex 1.70beta2
#
DISCID=b512401d
DTITLE=Bob Wills - Take Me Back To Tulsa  -  Disc 2
DYEAR=2001
DGENRE=Country
TTITLE0=Black Rider
TTITLE1=Pray For The Lights To Go Out
TTITLE2=San Antonio Rose
TTITLE3=Carolina In The Morning
TTITLE4=Silver Bells
TTITLE5=Beaumont Rag
TTITLE6=Twinkle Twinkle Little Star
TTITLE7=Whoa Baby
TTITLE8=I Wonder If You Feel The Way I Do
TTITLE9=My Window Faces South
TTITLE10=That's What I Like About The South
TTITLE11=The Waltz You Saved For Me
TTITLE12=Prosperity Special
TTITLE13=Don't Let The Deal Go Down
TTITLE14=You're Okay
TTITLE15=Lone Star Rag
TTITLE16=Corrine Corrina
TTITLE17=Bob Wills Special
TTITLE18=Time Changes Everything
TTITLE19=Big Beaver
TTITLE20=New San Antonio Rose
TTITLE21=I Knew The Moment I Lost You
TTITLE22=Twin Guitar Special
TTITLE23=Take Me Back To Tulsa
TTITLE24=Takin' It Home
TTITLE25=Please Don't Leave Me
TTITLE26=Cherokee Maiden
TTITLE27=Dusty Skies
TTITLE28=My Life's Been A Pleasure
EXTD=YEAR: 2001
EXTT0=
EXTT1=
EXTT2=
EXTT3=
EXTT4=
EXTT5=
EXTT6=
EXTT7=
EXTT8=
EXTT9=
EXTT10=
EXTT11=
EXTT12=
EXTT13=
EXTT14=
EXTT15=
EXTT16=
EXTT17=
EXTT18=
EXTT19=
EXTT20=
EXTT21=
EXTT22=
EXTT23=
EXTT24=
EXTT25=
EXTT26=
EXTT27=
EXTT28=
PLAYORDER=
